<svg xmlns="http://www.w3.org/2000/svg" viewBox="0 0 32 32">
  <!-- Shield body -->
  <path d="M16 2 L28 7 L28 15 C28 22.5 22.5 28.5 16 30 C9.5 28.5 4 22.5 4 15 L4 7 Z" fill="#0972d3" />
  <path d="M16 4 L26 8.5 L26 15 C26 21.5 21.5 27 16 28.3 C10.5 27 6 21.5 6 15 L6 8.5 Z" fill="#ffffff" />
  <!-- Thought bubble dots (representing captured thoughts) -->
  <circle cx="12" cy="14" r="2.2" fill="#0972d3" />
  <circle cx="20" cy="14" r="2.2" fill="#0972d3" />
  <circle cx="16" cy="19.5" r="2.2" fill="#0972d3" />
  <!-- Connection lines (network/semantic) -->
  <line x1="12" y1="14" x2="20" y2="14" stroke="#0972d3" stroke-width="1" opacity="0.4" />
  <line x1="12" y1="14" x2="16" y2="19.5" stroke="#0972d3" stroke-width="1" opacity="0.4" />
  <line x1="20" y1="14" x2="16" y2="19.5" stroke="#0972d3" stroke-width="1" opacity="0.4" />
</svg>
